2014050_C4_04_grf
version=1
nRows=30
nColumns=19
inDegrees=no
endheader
time	ground_force_1_vx	ground_force_1_vy	ground_force_1_vz	ground_force_1_px	ground_force_1_py	ground_force_1_pz	ground_force_1_mx	ground_force_1_my	ground_force_1_mz	ground_force_2_vx	ground_force_2_vy	ground_force_2_vz	ground_force_2_px	ground_force_2_py	ground_force_2_pz	ground_force_2_mx	ground_force_2_my	ground_force_2_mz
      0.41200000	     -4.82398644	    552.11611837	    -35.70548072	      0.29356943	     -0.00200000	     -0.11133476	      0.00000000	      1.52871857	      0.00000000	      0.00000000	      0.00000000	      0.00000000	      0.00000000	      0.00000000	      0.00000000	      0.00000000	      0.00000000	      0.00000000
      0.41300000	     -4.61486122	    553.64154652	    -35.78253649	      0.29395454	     -0.00200000	     -0.11131455	      0.00000000	      1.52964049	     -0.00000000	      0.00000000	      0.00000000	      0.00000000	      0.00000000	      0.00000000	      0.00000000	      0.00000000	      0.00000000	      0.00000000
      0.41400000	     -4.40104678	    555.17938733	    -35.86021066	      0.29433212	     -0.00200000	     -0.11129559	      0.00000000	      1.53058608	     -0.00000000	      0.00000000	      0.00000000	      0.00000000	      0.00000000	      0.00000000	      0.00000000	      0.00000000	      0.00000000	      0.00000000
      0.41500000	     -4.18111426	    556.73245713	    -35.93867272	      0.29470023	     -0.00200000	     -0.11127815	      0.00000000	      1.53157606	      0.00000000	      0.00000000	      0.00000000	      0.00000000	      0.00000000	      0.00000000	      0.00000000	      0.00000000	      0.00000000	      0.00000000
      0.41600000	     -3.95607948	    558.29741806	    -36.01777554	      0.29506073	     -0.00200000	     -0.11126190	      0.00000000	      1.53261180	      0.00000000	      0.00000000	      0.00000000	      0.00000000	      0.00000000	      0.00000000	      0.00000000	      0.00000000	      0.00000000	      0.00000000
      0.41700000	     -3.72441125	    559.87706035	    -36.09767370	      0.29541166	     -0.00200000	     -0.11124720	      0.00000000	      1.53371787	      0.00000000	      0.00000000	      0.00000000	      0.00000000	      0.00000000	      0.00000000	      0.00000000	      0.00000000	      0.00000000	      0.00000000
      0.41800000	     -3.48723494	    561.46812439	    -36.17820144	      0.29575493	     -0.00200000	     -0.11123371	      0.00000000	      1.53489103	      0.00000000	      0.00000000	      0.00000000	      0.00000000	      0.00000000	      0.00000000	      0.00000000	      0.00000000	      0.00000000	      0.00000000
      0.41900000	     -3.24292888	    563.07308748	    -36.25949100	      0.29608860	     -0.00200000	     -0.11122173	      0.00000000	      1.53616344	      0.00000000	      0.00000000	      0.00000000	      0.00000000	      0.00000000	      0.00000000	      0.00000000	      0.00000000	      0.00000000	      0.00000000
      0.42000000	     -2.99272640	    564.68889862	    -36.34135798	      0.29641458	     -0.00200000	     -0.11121100	      0.00000000	      1.53752883	      0.00000000	      0.00000000	      0.00000000	      0.00000000	      0.00000000	      0.00000000	      0.00000000	      0.00000000	      0.00000000	      0.00000000
      0.42100000	     -2.73491791	    566.31780043	    -36.42390110	      0.29673097	     -0.00200000	     -0.11120182	      0.00000000	      1.53902741	     -0.00000000	      0.00000000	      0.00000000	      0.00000000	      0.00000000	      0.00000000	      0.00000000	      0.00000000	      0.00000000	      0.00000000
      0.42200000	     -2.47084303	    567.95676798	    -36.50693595	      0.29703970	     -0.00200000	     -0.11119389	      0.00000000	      1.54064709	      0.00000000	      0.00000000	      0.00000000	      0.00000000	      0.00000000	      0.00000000	      0.00000000	      0.00000000	      0.00000000	      0.00000000
      0.42300000	     -2.19871639	    569.60775703	    -36.59051098	      0.29733890	     -0.00200000	     -0.11118754	      0.00000000	      1.54243711	      0.00000000	      0.00000000	      0.00000000	      0.00000000	      0.00000000	      0.00000000	      0.00000000	      0.00000000	      0.00000000	      0.00000000
      0.42400000	     -1.91997958	    571.26797736	    -36.67444736	      0.29763051	     -0.00200000	     -0.11118248	      0.00000000	      1.54438014	      0.00000000	      0.00000000	      0.00000000	      0.00000000	      0.00000000	      0.00000000	      0.00000000	      0.00000000	      0.00000000	      0.00000000
      0.42500000	     -1.63277675	    572.93901965	    -36.75872087	      0.29791268	     -0.00200000	     -0.11117902	      0.00000000	      1.54653895	      0.00000000	      0.00000000	      0.00000000	      0.00000000	      0.00000000	      0.00000000	      0.00000000	      0.00000000	      0.00000000	      0.00000000
      0.42600000	     -1.33864465	    574.61825013	    -36.84316576	      0.29818738	     -0.00200000	     -0.11117682	      0.00000000	      1.54889252	      0.00000000	      0.00000000	      0.00000000	      0.00000000	      0.00000000	      0.00000000	      0.00000000	      0.00000000	      0.00000000	      0.00000000
      0.42700000	     -1.03566897	    576.30697265	    -36.92769818	      0.29845280	     -0.00200000	     -0.11117618	      0.00000000	      1.55151832	      0.00000000	      0.00000000	      0.00000000	      0.00000000	      0.00000000	      0.00000000	      0.00000000	      0.00000000	      0.00000000	      0.00000000
      0.42800000	     -0.72548212	    578.00278813	    -37.01218963	      0.29871087	     -0.00200000	     -0.11117679	      0.00000000	      1.55438460	      0.00000000	      0.00000000	      0.00000000	      0.00000000	      0.00000000	      0.00000000	      0.00000000	      0.00000000	      0.00000000	      0.00000000
      0.42900000	     -0.40612090	    579.70663533	    -37.09647432	      0.29895985	     -0.00200000	     -0.11117891	      0.00000000	      1.55757895	      0.00000000	      0.00000000	      0.00000000	      0.00000000	      0.00000000	      0.00000000	      0.00000000	      0.00000000	      0.00000000	      0.00000000
      0.43000000	     -0.07930091	    581.41632378	    -37.18047217	      0.29920164	     -0.00200000	     -0.11118224	      0.00000000	      1.56105695	      0.00000000	      0.00000000	      0.00000000	      0.00000000	      0.00000000	      0.00000000	      0.00000000	      0.00000000	      0.00000000	      0.00000000
      0.43100000	      0.25697848	    583.13250542	    -37.26394475	      0.29943459	     -0.00200000	     -0.11118706	      0.00000000	      1.56491601	      0.00000000	      0.00000000	      0.00000000	      0.00000000	      0.00000000	      0.00000000	      0.00000000	      0.00000000	      0.00000000	      0.00000000
      0.43200000	      0.60092600	    584.85317230	    -37.34686226	      0.29966055	     -0.00200000	     -0.11119302	      0.00000000	      1.56910195	      0.00000000	      0.00000000	      0.00000000	      0.00000000	      0.00000000	      0.00000000	      0.00000000	      0.00000000	      0.00000000	      0.00000000
      0.43300000	      0.95457197	    586.57863736	    -37.42892854	      0.29987795	     -0.00200000	     -0.11120041	      0.00000000	      1.57372412	      0.00000000	      0.00000000	      0.00000000	      0.00000000	      0.00000000	      0.00000000	      0.00000000	      0.00000000	      0.00000000	      0.00000000
      0.43400000	      1.31606148	    588.30723166	    -37.51017898	      0.30008861	     -0.00200000	     -0.11120893	      0.00000000	      1.57871698	      0.00000000	      0.00000000	      0.00000000	      0.00000000	      0.00000000	      0.00000000	      0.00000000	      0.00000000	      0.00000000	      0.00000000
      0.43500000	      1.68745726	    590.03887698	    -37.59025969	      0.30029102	     -0.00200000	     -0.11121888	      0.00000000	      1.58419532	      0.00000000	      0.00000000	      0.00000000	      0.00000000	      0.00000000	      0.00000000	      0.00000000	      0.00000000	      0.00000000	      0.00000000
      0.43600000	      2.06685578	    591.77219123	    -37.66927123	      0.30048697	     -0.00200000	     -0.11122995	      0.00000000	      1.59007858	      0.00000000	      0.00000000	      0.00000000	      0.00000000	      0.00000000	      0.00000000	      0.00000000	      0.00000000	      0.00000000	      0.00000000
      0.43700000	      2.45634746	    593.50675717	    -37.74677962	      0.30067501	     -0.00200000	     -0.11124244	      0.00000000	      1.59648648	      0.00000000	      0.00000000	      0.00000000	      0.00000000	      0.00000000	      0.00000000	      0.00000000	      0.00000000	      0.00000000	      0.00000000
      0.43800000	      2.85397540	    595.24153173	    -37.82295808	      0.30085686	     -0.00200000	     -0.11125607	      0.00000000	      1.60332530	      0.00000000	      0.00000000	      0.00000000	      0.00000000	      0.00000000	      0.00000000	      0.00000000	      0.00000000	      0.00000000	      0.00000000
      0.43900000	      3.26183718	    596.97562829	    -37.89731674	      0.30103116	     -0.00200000	     -0.11127111	      0.00000000	      1.61071567	      0.00000000	      0.00000000	      0.00000000	      0.00000000	      0.00000000	      0.00000000	      0.00000000	      0.00000000	      0.00000000	      0.00000000
      0.44000000	      3.67792929	    598.70847315	    -37.97010332	      0.30119956	     -0.00200000	     -0.11128729	      0.00000000	      1.61855529	      0.00000000	      0.00000000	      0.00000000	      0.00000000	      0.00000000	      0.00000000	      0.00000000	      0.00000000	      0.00000000	      0.00000000
      0.44100000	      4.10434930	    600.43886676	    -38.04078884	      0.30136079	     -0.00200000	     -0.11130493	      0.00000000	      1.62696464	     -0.00000000	      0.00000000	      0.00000000	      0.00000000	      0.00000000	      0.00000000	      0.00000000	      0.00000000	      0.00000000	      0.00000000
